<?xml version="1.0" encoding="UTF-8" standalone="no"?>
<svg
   alt="EmailJS"
   aria-hidden="true"
   class="logo navbar-logo"
   fill="currentColor"
   role="img"
   viewBox="0 0 510.88 512"
   version="1.1"
   id="svg1"
   sodipodi:docname="emailjs.svg"
   inkscape:version="1.4.2 (ebf0e940, 2025-05-08)"
   xmlns:inkscape="http://www.inkscape.org/namespaces/inkscape"
   xmlns:sodipodi="http://sodipodi.sourceforge.net/DTD/sodipodi-0.dtd"
   xmlns="http://www.w3.org/2000/svg"
   xmlns:svg="http://www.w3.org/2000/svg">
  <defs
     id="defs1" />
  <sodipodi:namedview
     id="namedview1"
     pagecolor="#ffffff"
     bordercolor="#000000"
     borderopacity="0.25"
     inkscape:showpageshadow="2"
     inkscape:pageopacity="0.0"
     inkscape:pagecheckerboard="0"
     inkscape:deskcolor="#d1d1d1"
     inkscape:zoom="0.72173632"
     inkscape:cx="437.83303"
     inkscape:cy="209.91045"
     inkscape:window-width="1728"
     inkscape:window-height="1080"
     inkscape:window-x="0"
     inkscape:window-y="37"
     inkscape:window-maximized="0"
     inkscape:current-layer="svg1" />
  <rect
     height="240.31"
     rx="24"
     width="240.31"
     x="270.57"
     id="rect1"
     style="fill:#ff8434;fill-opacity:1" />
  <path
     d="M215.12 254.73V68.5a29.16 29.16 0 0 0-8.55-20.64 29.19 29.19 0 0 0-41.28 0L16.18 197a55.27 55.27 0 0 0 0 78.14l220.71 220.68a55.27 55.27 0 0 0 78.14 0l149.11-149.11a29.19 29.19 0 0 0 0-41.28l-1.14-1.12a29.16 29.16 0 0 0-20.64-8.55H256.15a41 41 0 0 1-41.03-41.03z"
     fill="inherit"
     id="path1"
     style="fill:#ff8434;fill-opacity:1" />
</svg>
