<?xml version="1.0" encoding="UTF-8" standalone="no"?>
<svg
   width="2559.8655"
   height="2559.9058"
   viewBox="0 0 1023.8817 1023.8978"
   version="1.1"
   id="svg1"
   xmlns="http://www.w3.org/2000/svg"
   xmlns:svg="http://www.w3.org/2000/svg">
  <defs
     id="defs1" />
  <path
     id="path1"
     style="fill:#ececec"
     d="M 505.21144,0.0172163 C 469.00394,0.4980923 432.81962,4.294179 397.39433,11.973339 362.16554,19.600493 327.79637,31.190995 295.16676,46.570229 267.68185,59.4991 241.42524,75.024912 216.80236,92.875218 177.14913,121.60524 141.405,155.8117 110.51805,193.77319 79.460798,232.04664 53.831745,274.68166 35.529225,320.47069 25.52535,345.38174 17.693052,371.10894 11.972681,397.32942 6.67537,421.59343 3.2373432,446.22792 1.4701244,471.01853 0.12909444,489.6907 -0.30084456,508.49401 0.20647044,527.20001 0.90068444,552.10326 3.1331796,576.89821 7.1662479,601.47857 13.544934,639.9287 24.338432,677.8 39.764941,713.6709 c 8.102277,18.90446 17.474221,37.30686 27.915251,54.99476 14.576934,24.6547 31.299805,48.03325 49.788208,69.88844 14.48695,17.14023 29.97865,33.4286 46.388,48.76766 18.22925,17.01783 37.59856,32.92972 58.02542,47.34234 30.29166,21.3177 62.94525,39.32078 97.30544,53.21495 30.84926,12.45495 63.01438,21.64745 95.77912,27.55625 26.39432,4.7969 53.10062,7.3944 79.92484,8.208 32.72322,0.9753 65.5497,-0.8456 97.94723,-5.5745 36.39519,-5.3742 72.28188,-14.7002 106.62363,-28.11143 32.6728,-12.76632 63.93608,-29.24484 93.08006,-48.79913 22.3375,-14.95079 43.39523,-31.71525 63.19796,-49.86971 25.689,-23.5187 49.28286,-49.42697 70.19725,-77.28059 23.33971,-31.20667 43.1386,-65.04992 58.44759,-100.93669 9.69545,-22.77731 17.66176,-46.38356 23.72406,-70.39741 7.1554,-28.22235 11.7661,-56.9852 14.0213,-85.98304 2.2691,-29.00934 2.3448,-58.15931 0.1601,-87.19374 -1.5582,-20.66798 -4.2184,-41.33248 -8.2272,-61.71398 -6.3538,-32.44525 -15.88866,-64.2837 -28.75375,-94.74239 -11.13847,-26.44841 -24.75709,-51.99765 -40.4269,-76.03483 C 924.25451,205.27355 899.95016,176.00095 873.18126,149.27274 852.59992,128.77825 830.44754,109.79659 806.90989,92.750346 785.31241,77.171554 762.4558,63.248852 738.64504,51.347294 708.73637,36.407293 677.26541,24.71319 644.89593,16.354215 616.58273,9.0297803 587.67384,4.2750964 558.53435,1.9080933 540.80882,0.4614013 523.00041,-0.1098797 505.21144,0.0172163 Z m 6.73829,78.6640617 c 42.13585,0.03372 84.38623,5.385277 124.83738,17.333197 34.26594,10.077765 67.18262,24.737215 97.57249,43.511375 37.38818,23.02724 71.03279,51.8871 100.50769,84.37998 25.49907,28.13639 47.69655,59.36024 65.03809,93.17156 17.33188,33.75181 29.8017,69.97866 37.03137,107.22097 8.07192,41.35634 9.97961,83.82073 6.75126,125.80284 -3.30088,41.9482 -12.53565,83.505 -28.21841,122.58475 -13.95035,34.867 -32.88569,67.69007 -55.73027,97.48199 -21.14874,27.6574 -45.44317,52.86215 -71.95642,75.40951 -33.77008,28.59102 -71.79611,52.32783 -112.83743,68.98305 -34.86558,14.20009 -71.72894,23.3872 -109.1271,27.60826 -30.56199,3.49411 -61.46117,3.90027 -92.12475,1.52487 -34.79325,-2.74448 -69.30243,-9.54605 -102.35967,-20.78644 -30.2416,-10.24459 -59.22363,-24.15981 -86.19085,-41.25223 -30.63003,-19.35628 -58.65922,-42.69213 -83.90645,-68.652 -18.81677,-19.33907 -36.14699,-40.16387 -51.29209,-62.50776 -18.59733,-27.35699 -34.0233,-56.90593 -45.43094,-87.96623 -11.857719,-32.1586 -19.519667,-65.82898 -23.146388,-99.90518 -3.241818,-30.16887 -3.482883,-60.6461 -1.002027,-90.88202 2.932683,-35.05714 9.972201,-69.8164 21.533755,-103.05898 12.15482,-35.08886 29.30127,-68.41203 50.52018,-98.8772 22.70136,-32.64766 49.82135,-62.13545 79.83922,-88.17677 37.4849,-32.4956 80.42919,-58.91547 126.95527,-76.29478 33.40428,-12.558212 68.48187,-20.549176 103.97531,-24.161578 16.19503,-1.674427 32.48031,-2.457145 48.76078,-2.491184 z M 281.76027,188.04261 c -4.52919,13.12574 -8.50555,26.48203 -11.18945,40.10156 -2.73603,13.94256 -4.09318,28.29866 -3.62752,42.45644 0.36822,11.89789 2.03999,23.75989 5.09432,35.26817 -13.24978,15.64586 -24.20349,33.36723 -31.32977,52.63208 -1.86398,5.08765 -3.26721,10.41725 -4.60248,15.69757 -3.28345,13.31499 -5.3119,27.0384 -6.20471,40.71201 -0.98757,14.95082 -0.60217,29.9339 0.86157,44.83725 1.38135,14.2322 3.87366,28.43074 7.88316,42.20668 2.7778,9.58807 6.37268,19.12897 10.72035,28.07262 8.6086,17.69685 20.48422,33.94236 35.51203,46.72608 17.02036,14.64008 36.89648,25.70955 57.71831,34.04523 18.94659,7.58317 38.7721,12.54325 58.81826,16.18659 1.50319,0.29667 3.10965,0.501 4.61937,0.84288 0.77284,0.31113 0.58156,1.39142 -0.0789,1.73913 -2.13924,1.80311 -4.32962,3.82984 -6.32966,5.88873 -6.63452,6.79514 -12.22923,14.88568 -15.73084,23.81163 -0.45795,1.02991 -0.75268,2.1822 -1.26039,3.15554 -9.01083,5.57435 -19.09107,9.81049 -29.72712,10.74872 -10.65171,1.00269 -21.41723,-1.68531 -30.85838,-6.56811 -11.04649,-5.63238 -20.62601,-13.7957 -28.94995,-22.91575 -9.86577,-10.78258 -18.32695,-22.8209 -29.25797,-32.60124 -6.58629,-5.83198 -13.96094,-10.93962 -22.20373,-14.12343 -3.71046,-1.4309 -7.54924,-2.12508 -11.45918,-2.84273 -2.70468,-0.44084 -5.63783,-0.80693 -8.22782,-0.77491 -5.95671,0.0455 -11.89796,1.6859 -16.96866,4.82815 -4.52903,2.7509 -8.53175,6.68319 -10.60002,11.6266 -2.30728,6.10112 -0.5094,13.45595 4.2915,17.85713 2.9691,2.84152 6.24117,5.32904 9.25361,8.1251 11.20905,9.88667 22.03136,20.38583 30.81549,32.53459 4.30937,6.00226 7.55622,12.66486 11.31963,19.00494 3.65166,6.35875 7.68145,12.4726 11.93026,18.40564 4.67357,6.45865 9.82265,12.76006 15.64209,18.30871 4.90873,3.93292 10.53348,6.81217 15.96494,9.93274 13.18196,7.09925 27.46546,12.40472 42.22225,14.89788 11.78987,1.96976 23.74307,2.11337 35.52306,0.36573 1.58051,-0.23637 3.24569,-0.5312 4.85975,-0.79932 0.3138,15.07577 2.2538,30.03831 2.59988,45.11835 -0.0376,4.61911 0.007,9.29725 -0.98537,13.83169 -0.8807,3.35825 -2.69853,6.36335 -4.38599,9.36246 -3.30768,5.10747 -8.55131,8.42444 -13.4026,11.8902 -4.74762,3.34529 -9.74495,6.74279 -12.87475,11.76409 -1.54428,2.59966 -2.26864,5.86134 -2.22851,8.71289 0.0229,7.08554 4.50905,13.94515 10.84712,17.16354 5.12772,2.55634 11.16347,3.2471 16.8257,3.30965 7.98836,-0.0116 15.99829,-0.69415 23.80903,-2.61588 9.44478,-2.35125 18.48267,-6.40107 26.17987,-12.41824 2.90937,-2.22852 5.74543,-4.76608 8.26992,-7.49766 1.21236,-0.75617 2.42229,-1.51626 3.63281,-2.27539 -0.57363,1.94803 -0.80462,4.06824 -2.01965,5.7589 -2.42534,4.24396 -4.84686,8.49213 -7.53561,12.57619 -1.32553,2.03924 -2.7929,4.14069 -2.99192,6.64366 -0.56989,4.52936 1.41008,9.21873 4.93394,12.09253 4.44667,3.77193 10.39776,5.79682 16.22777,5.18844 4.05091,-0.37253 8.07906,-0.99777 12.07492,-1.75581 11.17516,-2.26253 22.05869,-6.84835 30.74692,-14.34414 8.25602,-7.02765 14.50237,-16.43219 18.20426,-26.50938 2.43799,-6.50579 4.43611,-13.21877 5.74357,-20.00862 0.62722,-3.08095 1.05956,-6.15014 1.49471,-9.24724 0.50904,-1.33101 1.01868,-2.66178 1.52929,-3.99219 0.72401,1.96386 1.76406,3.87545 1.84008,6.01117 1.91309,13.69286 6.20145,27.30852 13.40026,39.2798 4.61413,7.4782 11.20535,13.64123 18.67177,18.22075 1.98056,1.21077 4.14839,2.36839 6.23782,3.33708 4.11352,1.96116 8.49328,3.25371 12.868,4.47954 5.11039,1.50921 10.29258,3.10348 15.54904,3.66437 2.02409,0.22385 3.8161,0.22926 5.84495,0.0489 3.8283,-0.32726 7.81264,-1.62392 10.71308,-4.06313 3.59843,-3.1076 5.52908,-8.32163 4.08574,-12.95469 -0.88926,-3.47123 -2.14454,-6.8398 -3.4476,-10.17318 -2.4689,-5.80585 -6.19073,-10.94504 -9.72624,-16.12444 -0.71496,-1.39471 -1.37259,-2.88684 -1.32401,-4.48402 -0.22019,-0.77222 0.55508,-1.64214 1.32813,-1.22461 1.25505,0.80661 2.0844,2.09451 2.81145,3.37224 3.39137,4.89825 7.85896,8.92987 12.46213,12.66136 9.34966,7.37259 20.63434,12.51252 32.40696,14.72552 4.87976,0.91447 9.75999,1.4311 14.69909,1.60681 4.81337,0.14408 9.74134,-0.17561 14.53993,-1.16448 6.1362,-1.22296 11.9379,-5.03126 14.78687,-10.7022 3.35696,-6.6413 2.32785,-15.31997 -2.78039,-20.79791 -3.78719,-4.02051 -9.31842,-5.78995 -13.45143,-9.44157 -5.10158,-4.01255 -9.79389,-8.65357 -13.32422,-14.12696 -0.54781,-1.14957 -0.24725,-2.41113 -0.38431,-3.56673 -0.61277,-17.77448 -1.2435,-35.54955 -1.76796,-53.32624 -0.008,-20.93036 0.0334,-41.86368 -0.14895,-62.79196 -1.29392,-9.39273 -3.11886,-18.73507 -6.16753,-27.69983 -2.60079,-7.5777 -6.01689,-14.97022 -10.99211,-21.2988 -4.12619,-5.41853 -9.12393,-10.09275 -14.34646,-14.43553 -0.61919,-0.43943 -1.0328,-0.82116 0.0111,-0.79391 9.72625,-1.53185 19.36914,-3.34842 28.91536,-5.78426 13.65319,-3.4713 27.13194,-8.14981 39.7666,-14.49247 13.62662,-6.81771 26.50217,-15.10962 38.49289,-24.50194 15.64789,-12.51494 29.36064,-27.65845 38.97521,-45.31759 6.50516,-11.82403 11.4501,-24.58964 15.0536,-37.58871 4.36333,-15.71937 6.84764,-31.89383 8.12473,-48.12559 0.78035,-10.14974 1.02308,-20.36537 0.72905,-30.53538 -0.61843,-18.25807 -3.23994,-36.42637 -8.18147,-54.03881 -3.30223,-11.7595 -7.68157,-23.32779 -13.27884,-34.19623 -6.53048,-12.77003 -14.62738,-24.7053 -24.17591,-35.42399 3.73297,-19.96435 3.57686,-40.42201 0.94095,-60.46063 -1.84451,-14.31553 -4.83256,-28.50543 -9.35533,-42.22245 -1.24934,-3.86773 -2.63842,-7.63084 -4.08589,-11.42262 -0.25166,-0.41075 -1.08621,-6.2e-4 -1.55128,-0.11016 -13.51613,0.53137 -26.99695,1.58465 -40.29135,4.02368 -7.15006,1.32365 -14.35791,3.05841 -21.29968,5.22343 -11.53875,3.69521 -22.61181,9.09882 -33.2399,14.9907 -9.39363,5.15959 -18.7736,10.37602 -27.70932,16.30618 -27.8956,-5.89778 -56.21559,-9.42606 -84.7075,-10.21817 -22.56226,-0.63137 -45.1746,0.44507 -67.55427,3.39181 -14.25999,1.86743 -28.47897,4.47785 -42.51674,7.79658 -1.06855,0.25434 -2.13771,0.50617 -3.20586,0.7622 -13.21723,-9.67526 -27.36526,-17.8829 -42.3446,-24.43827 -16.67381,-7.31602 -34.37968,-12.50685 -52.41105,-15.23913 -9.81352,-1.52119 -19.65411,-2.34372 -29.56662,-2.77572 -0.35221,1.00716 -0.70442,2.01432 -1.05664,3.02148 z" />
  <path
     d="m 11.971208,511.95397 c 0,-138.012 48.825,-255.843 146.476002,-353.493 97.649,-97.650004 215.48,-146.475004 353.493,-146.475004 138.011,0 255.842,48.825 353.493,146.475004 97.649,97.65 146.47499,215.481 146.47499,353.493 0,138.012 -48.82499,255.843 -146.47499,353.493 -97.65,97.65 -215.481,146.47603 -353.493,146.47603 -138.013,0 -255.844,-48.82503 -353.493,-146.47603 -97.651002,-97.649 -146.476002,-215.482 -146.476002,-353.493 z m 54.684,0 c 0,122.389 43.617002,227.199 130.851002,314.434 87.234,87.233 192.045,130.851 314.434,130.851 122.388,0 227.199,-43.617 314.433,-130.851 87.234,-87.234 130.851,-192.045 130.851,-314.434 0,-122.388 -43.616,-227.199 -130.851,-314.433 -87.234,-87.234 -192.046,-130.851004 -314.433,-130.851004 -122.389,0 -227.199,43.617004 -314.434,130.851004 -87.234,87.234 -130.851002,192.045 -130.851002,314.433 z m 140.617002,107.415 c -2.604,-2.604 -2.604,-5.208 0,-7.812 5.207,-5.208 11.718,-7.161 19.529,-5.859 7.812,1.302 12.369,2.604 13.671,3.906 9.114,3.906 19.205,12.694 30.271,26.366 11.066,13.671 19.855,23.11 26.366,28.318 31.248,26.04 63.146,27.993 95.696,5.859 2.604,-9.114 6.836,-16.926 12.694,-23.437 5.858,-6.51 11.393,-11.066 16.601,-13.671 5.209,-2.604 14.323,-6.51 27.343,-11.718 -42.967,-3.906 -77.795,-11.393 -104.486,-22.46 -26.691,-11.067 -47.849,-25.063 -63.473,-41.989 -20.832,-23.436 -33.527,-54.033 -38.084,-91.791 -4.558,-37.758 -1.628,-72.261 8.789,-103.509 7.812,-19.53 18.879,-37.106 33.2,-52.731 -10.416,-32.55 -8.463,-69.657 5.859,-111.321 41.664,2.604 79.422,16.926 113.274,42.966 65.1,-16.926 132.804,-17.577 203.111,-1.953 9.114,-6.51 23.111,-14.647 41.989,-24.413 18.879,-9.765 42.641,-15.299 71.285,-16.601 5.208,14.322 8.789,31.248 10.742,50.778 1.953,19.53 0.977,37.758 -2.929,54.684 29.945,31.248 45.569,72.912 46.871,124.992 0,41.664 -7.16,76.167 -21.482,103.509 -14.322,27.342 -39.711,50.127 -76.167,68.354 -24.738,11.719 -57.288,18.879 -97.65,21.483 18.229,9.114 31.574,18.554 40.037,28.319 8.464,9.765 13.997,25.063 16.602,45.895 v 61.521 l 1.952,59.566 c 3.906,6.511 8.464,12.044 13.672,16.602 5.208,4.557 9.765,7.812 13.671,9.765 3.905,1.953 5.208,4.883 3.905,8.789 -1.302,3.906 -6.51,5.859 -15.623,5.859 -22.135,0 -39.711,-7.812 -52.731,-23.437 -3.906,-6.51 -5.859,-14.321 -5.859,-23.436 v -93.744 c 0,-10.416 -2.604,-17.903 -7.812,-22.46 -5.208,-4.558 -10.416,-7.487 -15.624,-8.789 v 123.039 c 0,22.134 2.604,36.456 7.812,42.966 5.208,6.51 8.463,13.021 9.766,19.53 1.302,1.302 0.325,2.278 -2.93,2.929 -3.254,0.65 -8.788,-0.325 -16.601,-2.929 -16.926,-3.906 -28.644,-12.695 -35.154,-26.366 -6.51,-13.671 -9.765,-28.319 -9.765,-43.943 v -121.083 h -25.389 v 121.086 c 0,15.624 -3.256,30.598 -9.766,44.919 -9.113,18.229 -26.04,27.993 -50.777,29.295 -3.906,-1.302 -5.859,-2.604 -5.859,-3.905 1.302,-1.303 5.208,-7.812 11.718,-19.53 1.302,-2.604 2.93,-7.812 4.883,-15.624 1.954,-7.812 2.93,-16.926 2.93,-27.342 v -123.04 c -5.208,1.302 -10.091,4.231 -14.648,8.789 -4.557,4.558 -6.836,12.044 -6.836,22.46 v 93.744 c 0,9.113 -1.953,16.926 -5.859,23.436 -11.718,15.624 -29.295,23.437 -52.73,23.437 -9.114,0 -14.322,-1.953 -15.624,-5.859 -1.303,-2.604 -0.977,-4.883 0.977,-6.836 1.954,-1.953 4.883,-4.232 8.789,-6.836 3.906,-2.604 6.51,-4.558 7.812,-5.859 5.208,-3.906 9.113,-9.114 11.718,-15.624 3.906,-5.208 4.882,-18.879 2.929,-41.013 -1.953,-22.134 -2.279,-36.456 -0.977,-42.966 -33.853,11.718 -68.355,5.858 -103.51,-17.577 -10.416,-10.416 -20.832,-25.39 -31.248,-44.919 -7.812,-14.323 -23.436,-31.249 -46.871,-50.779 z"
     id="path2" />
</svg>
