<?xml version="1.0" encoding="UTF-8" standalone="no"?>
<!-- Uploaded to: SVG Repo, www.svgrepo.com, Generator: SVG Repo Mixer Tools -->

<svg
   width="519.90479"
   height="823.4137"
   viewBox="-78.5 0 268.40085 425.08732"
   version="1.1"
   preserveAspectRatio="xMidYMid"
   id="svg1"
   xmlns="http://www.w3.org/2000/svg"
   xmlns:svg="http://www.w3.org/2000/svg">
  <defs
     id="defs1" />
  <g
     id="g1"
     transform="translate(-72.291822,6.2033592)">
    <path
       id="path1"
       style="fill:#ececec;stroke:none"
       d="M 68,-6.171875 C 50.396004,-5.642811 33.226809,3.025735 22.365325,16.892728 12.728373,28.989342 7.9025684,44.858581 9.4318319,60.271763 10.649423,73.371033 16.249843,86.028373 25.191406,95.6875 c 0.679205,0.803838 1.008048,1.883547 1.939637,2.469777 0.930855,0.663362 1.901465,1.272939 2.695503,2.104373 6.540488,5.74666 14.307612,10.10148 22.640251,12.63288 0,6.42253 0,12.84505 0,19.26758 -13.671067,3.21134 -26.324477,10.41544 -36.248068,20.32896 -2.991095,2.86632 -5.613845,6.10049 -8.0693528,9.43048 -10.3709605,14.37208 -15.5613416,32.44731 -14.1210096,50.1338 1.2506533,16.7309 8.2268997,32.98076 19.5619504,45.35881 10.267014,11.31795 23.95514,19.58821 38.87648,23.01162 0,6.44922 0,12.89844 0,19.34766 -8.885607,2.66353 -17.110148,7.44728 -23.902344,13.75586 -1.507282,0.57594 -2.393687,2.00777 -3.223449,3.29549 -12.373881,13.17568 -18.268053,32.13347 -15.5270483,50.00183 1.7816873,12.07345 7.2975843,23.58097 15.6547943,32.48197 0.54124,1.2937 1.551998,2.35873 2.78973,3.00096 1.766787,1.49232 3.455075,3.07904 5.343382,4.42442 12.773797,9.59058 29.429495,13.91725 45.241359,11.48418 14.327757,-2.11229 27.893719,-9.44733 37.225319,-20.56547 8.05263,-9.25332 13.14143,-21.01285 14.44727,-33.20459 1.69222,-15.15179 -2.71475,-30.8379 -11.89921,-42.98817 -7.72742,-10.25645 -18.740805,-18.02263 -31.059959,-21.6943 0,-6.44531 0,-12.89062 0,-19.33593 14.416339,-3.34009 27.734489,-11.1171 37.867189,-21.88477 5.58073,3.21875 11.16146,6.4375 16.74219,9.65625 -4.31189,17.70255 0.048,37.24938 11.38548,51.50021 5.36133,6.82328 12.22857,12.41941 19.85858,16.52426 9.48928,4.91629 20.29019,7.21447 30.95846,6.69241 9.59316,-0.42856 19.07343,-3.1947 27.35836,-8.05871 7.96418,-4.61328 14.89907,-11.02699 20.01529,-18.68551 1.60562,-1.39686 2.11841,-3.56068 3.23962,-5.29849 5.78224,-10.78741 8.2375,-23.33924 6.81481,-35.50453 -1.43326,-12.86456 -7.05808,-25.24756 -15.95049,-34.67372 -4.14222,-4.42909 -8.91492,-8.30398 -14.2018,-11.28419 -3.45183,-1.86482 -6.97969,-3.6232 -10.71889,-4.84611 -13.63125,-4.67227 -28.94205,-4.28929 -42.28103,1.19245 -6.99829,2.80778 -13.48274,6.91854 -18.953,12.11381 -5.56576,-3.20378 -11.13151,-6.40756 -16.69727,-9.61133 4.26424,-14.19537 4.30161,-29.64663 0.008,-43.83984 5.57032,-3.2181 11.14063,-6.4362 16.71094,-9.6543 11.80129,11.18374 28.25512,17.29935 44.501,16.43286 7.89538,-0.34681 15.68635,-2.31341 22.88338,-5.55473 2.19391,-0.79837 4.01272,-2.24062 6.03422,-3.331 10.70737,-6.52548 19.34867,-16.42333 24.19721,-28.00262 5.39923,-12.67436 6.38741,-27.20534 2.54216,-40.45183 -3.91079,-13.77963 -12.80435,-26.113753 -24.77736,-34.008552 -12.03916,-8.052678 -27.01634,-11.636094 -41.38905,-9.734006 -14.16917,1.797547 -27.59458,8.78966 -37.21431,19.342557 -7.55627,8.202958 -12.74758,18.537961 -14.83461,29.492581 -1.6351,8.40849 -1.51154,17.17358 0.50658,25.50614 -5.57878,3.22657 -11.15755,6.45313 -16.73633,9.67969 -10.15248,-10.76989 -23.44017,-18.59368 -37.869139,-21.9707 0,-6.41992 0,-12.83985 0,-19.25977 C 102.05201,108.54266 114.76828,98.564515 122.42084,85.497039 130.26092,72.292222 132.8253,56.047805 129.32071,41.085747 126.11913,27.104069 117.82511,14.34092 106.26765,5.8280295 95.481186,-2.1996702 81.990577,-6.5552184 68.536807,-6.1810985 68.357872,-6.178024 68.178936,-6.1749495 68,-6.171875 Z m 2.009766,41.691406 c 8.220007,-0.131213 16.204286,5.689939 18.371914,13.660725 0.337367,1.199595 0.525465,2.166415 0.664892,3.438826 0.589172,5.362564 -1.162933,10.951285 -4.842328,14.918555 -3.517565,3.906979 -8.711203,6.220893 -13.967916,6.229941 -0.736458,6.68e-4 -1.767348,-0.03625 -2.613949,-0.150564 -4.928494,-0.551229 -9.567089,-3.15044 -12.6123,-7.06428 -2.625844,-3.327841 -4.175465,-7.533095 -4.142891,-11.787109 0.01221,-0.661456 0.0327,-1.643761 0.141281,-2.422855 0.566561,-5.047764 3.240627,-9.83186 7.34179,-12.851632 3.292528,-2.590211 7.476342,-3.984694 11.659507,-3.971607 z M 201.22266,111.35742 c 8.00932,-0.1565 15.79501,5.29273 18.30379,12.91703 2.52236,7.33186 0.10392,16.11691 -5.96762,20.98761 -3.08311,2.56658 -7.16067,4.15322 -11.06664,4.32778 -6.60415,0.36598 -13.3171,-2.86147 -16.99361,-8.39014 -3.66537,-5.34743 -4.33756,-12.59978 -1.62719,-18.50107 2.11724,-4.80479 6.26912,-8.68569 11.27562,-10.32255 1.96496,-0.66228 4.03306,-1.00996 6.1069,-1.02061 z m -131.205082,64.4336 c 7.710629,-0.007 15.384589,3.05562 20.953125,8.39257 2.687651,2.52268 5.01499,5.6862 6.593368,9.09563 1.020562,2.14567 1.745168,4.30659 2.252335,6.64461 0.276524,1.28893 0.498264,2.83014 0.587894,4.23633 0.0938,1.55155 0.0934,2.81503 -0.0225,4.37109 -0.15379,2.06817 -0.52912,4.19135 -1.053823,6.05192 -1.453233,5.33545 -4.490726,10.40368 -8.642907,14.18384 -5.426423,5.05858 -12.917917,7.96792 -20.230032,8.06307 -3.868892,0.0561 -7.954265,-0.64022 -11.622687,-2.12424 -5.824864,-2.30108 -10.944004,-6.41457 -14.334344,-11.69217 -0.895738,-1.40119 -1.829954,-3.13629 -2.471354,-4.69021 -1.388568,-3.27184 -2.222597,-6.7833 -2.401693,-10.33518 -0.0682,-1.36302 -0.05474,-2.95656 0.07973,-4.40611 0.21639,-2.60193 0.82321,-5.28929 1.668312,-7.67397 2.895874,-8.15496 9.485511,-14.84783 17.528473,-18.00525 1.049765,-0.41285 2.381413,-0.86155 3.577764,-1.16636 1.549316,-0.40021 3.158838,-0.67683 4.661544,-0.81818 0.956125,-0.094 1.916233,-0.12725 2.87675,-0.12739 z m 132.392582,87.26562 c 7.89543,0.32472 15.27416,6.10008 17.33428,13.75569 0.554,1.89111 0.80714,3.9674 0.78486,5.85564 -0.007,0.85256 -0.0919,1.97642 -0.27215,2.92251 -0.43116,2.48858 -1.40038,4.89428 -2.72681,6.95949 -2.81086,4.49849 -7.63519,7.60123 -12.8576,8.44432 -5.43651,0.97112 -11.32607,-0.41492 -15.53481,-4.05494 -4.2167,-3.49759 -6.82988,-8.84575 -6.90448,-14.33302 -0.28131,-7.51661 4.39889,-14.92065 11.29495,-17.91179 2.5691,-1.13507 5.38979,-1.66913 8.19426,-1.65352 0.1077,0 0.48117,0.0112 0.6875,0.0156 z M 70.003906,338.86133 c 7.736846,-0.11115 15.284664,4.99531 17.910394,12.30115 0.641176,1.71266 1.031251,3.51852 1.175544,5.34143 0.08111,1.16759 0.08035,2.59449 -0.07919,3.85474 -0.622896,5.96088 -4.367928,11.40592 -9.573016,14.32132 -3.900817,2.22862 -8.613479,2.98273 -13.021619,2.14425 -1.1085,-0.21744 -2.443315,-0.59522 -3.577933,-1.06536 -5.949858,-2.34524 -10.489704,-7.87148 -11.639583,-14.1624 -1.313707,-6.74133 1.266308,-14.18056 6.731188,-18.41677 3.334253,-2.83346 7.714425,-4.32523 12.074218,-4.31836 z" />
    <path
       d="M 87.932069,36.714181 C 83.382936,32.142748 77.036449,29.31961 69.980833,29.31961 c -7.028857,0 -13.326285,2.823138 -17.821899,7.394571 h -0.129338 c -4.535753,4.549133 -7.358892,10.90008 -7.358892,17.928937 0,7.055616 2.823139,13.353044 7.358892,17.875417 l 0.129338,0.102579 c 4.495614,4.549133 10.793042,7.345512 17.821899,7.345512 7.055616,0 13.402103,-2.796379 17.951236,-7.345512 l 0.0669,-0.102579 C 92.557021,67.996162 95.3534,61.698734 95.3534,54.643118 c 0,-7.028857 -2.796379,-13.379804 -7.354432,-17.928937 z M 69.980833,383.35367 c 7.055616,0 13.402103,-2.8722 17.951236,-7.36781 l 0.0669,-0.1338 c 4.558053,-4.48669 7.354432,-10.83764 7.354432,-17.81744 0,-7.05561 -2.796379,-13.3798 -7.354432,-17.95123 h -0.0669 c -4.549133,-4.62495 -10.89562,-7.42133 -17.951236,-7.42133 -7.028857,0 -13.326285,2.79638 -17.821899,7.42133 h -0.129338 c -4.535753,4.57143 -7.358892,10.89562 -7.358892,17.95123 0,6.9798 2.823139,13.33075 7.358892,17.81744 l 0.129338,0.1338 c 4.495614,4.49561 10.793042,7.36781 17.821899,7.36781 z M 207.95337,306.63388 c 6.27512,-1.64572 11.95708,-5.67304 15.42245,-11.76085 l 0.46829,-0.88753 c 3.08182,-5.77561 3.64377,-12.43875 1.99805,-18.34371 -1.65909,-6.32418 -5.73547,-11.91694 -11.8099,-15.41799 l -0.35234,-0.23638 c -5.91833,-3.24237 -12.66175,-3.94704 -18.8566,-2.27456 -6.29743,1.56989 -11.95262,5.77561 -15.40015,11.81436 -3.49213,5.98078 -4.22356,12.88029 -2.55109,19.23124 1.726,6.24391 5.76224,11.89019 11.79653,15.41799 h 0.0401 c 6.04767,3.47429 12.89813,4.10314 19.24462,2.45743 z M 95.968871,180.38651 c -6.654222,-6.63638 -15.823848,-10.79304 -25.988038,-10.79304 -10.124052,0 -19.271377,4.15666 -25.91222,10.79304 -6.609623,6.61408 -10.686003,15.76141 -10.686003,25.89884 0,10.16419 4.07638,19.33828 10.686003,26.02818 6.640843,6.58286 15.788168,10.71276 25.91222,10.71276 10.16419,0 19.333816,-4.1299 25.988038,-10.71276 6.622999,-6.6899 10.699379,-15.86399 10.699379,-26.02818 0,-10.13743 -4.07638,-19.28476 -10.699379,-25.89884 z M 81.358126,137.22327 c 14.726703,2.4262 27.977174,9.48182 38.087844,19.67277 h 0.0803 c 1.60557,1.61895 3.17547,3.37171 4.62495,5.14676 l 25.28337,-14.62858 c -3.39847,-10.27123 -3.55457,-21.01076 -0.82509,-31.07237 3.60808,-13.48684 12.34956,-25.559883 25.45284,-33.137311 l 0.43262,-0.258677 c 12.96057,-7.345512 27.69619,-8.861889 41.00018,-5.253803 13.469,3.603628 25.62232,12.385239 33.18637,25.479611 v 0.0268 c 7.52837,13.01408 9.05813,27.95932 5.46342,41.39265 -3.58133,13.47792 -12.36294,25.63124 -25.45285,33.15515 l -3.45199,2.04265 h -0.35233 c -12.10872,5.77116 -25.42609,6.66314 -37.65523,3.44753 -10.04377,-2.66704 -19.258,-8.2598 -26.46971,-16.2297 l -25.24323,14.58398 c 2.89896,7.68001 4.50899,15.96657 4.50899,24.69466 0,8.70133 -1.61003,17.09047 -4.50899,24.824 l 25.24323,14.53046 c 7.21171,-8.07248 16.42594,-13.56266 26.46971,-16.2297 13.469,-3.6839 28.40532,-2.11401 41.45955,5.49018 l 0.83401,0.39248 v 0.0535 c 12.61269,7.62649 21.07765,19.44086 24.61884,32.76714 3.59471,13.35305 2.06495,28.30275 -5.46342,41.3436 l -0.45491,0.91428 -0.0535,-0.0803 c -7.56405,12.57256 -19.481,21.09103 -32.6378,24.69466 -13.50023,3.55457 -28.43209,2.03819 -41.47294,-5.45896 v -0.10704 c -13.10332,-7.57743 -21.8448,-19.67724 -25.45288,-33.13286 -2.72948,-10.03485 -2.57338,-20.77883 0.82509,-31.0456 L 124.1512,250.65724 c -1.44948,1.77951 -3.01938,3.45199 -4.62495,5.07095 l -0.0803,0.0758 c -10.11067,10.1419 -23.361141,17.19751 -38.087844,19.5479 v 29.21703 c 10.494226,2.19429 19.900224,7.44809 27.272494,14.8159 l 0.0357,0.0803 c 9.87876,9.82524 15.99333,23.51723 15.99333,38.56951 0,15.00322 -6.11457,28.61048 -15.99333,38.48924 l -0.0357,0.1561 c -9.945649,9.87875 -23.597508,15.99332 -38.649787,15.99332 -14.972001,0 -28.6417,-6.11457 -38.560594,-15.99332 h -0.03568 v -0.1561 c -9.892135,-9.87876 -16.020084,-23.48602 -16.020084,-38.48924 0,-15.05228 6.127949,-28.74427 16.020084,-38.56951 v -0.0803 h 0.03568 c 7.358892,-7.36781 16.778273,-12.62161 27.24574,-14.8159 V 275.3519 c -14.740084,-2.35039 -27.95041,-9.406 -38.047702,-19.5479 l -0.107038,-0.0758 C 7.8896242,243.05305 0,225.62363 0,206.28535 0,187.00059 7.8896242,169.57117 20.511239,156.89604 h 0.107038 c 10.097292,-10.19095 23.307618,-17.24657 38.047702,-19.67277 v -29.0877 C 48.198512,105.86101 38.779131,100.61166 31.420239,93.292911 h -0.03568 v -0.08028 C 21.492424,83.284817 15.364475,69.695397 15.364475,54.643118 c 0,-14.97646 6.127949,-28.695219 16.020084,-38.573974 l 0.03568,-0.04906 C 41.339133,6.1145702 55.008832,0 69.980833,0 85.033112,0 98.684971,6.1145702 108.63062,16.020085 v 0.04906 h 0.0357 c 9.87876,9.878755 15.99333,23.597514 15.99333,38.573974 0,15.052279 -6.11457,28.641699 -15.99333,38.569514 l -0.0357,0.08028 c -7.37227,7.318747 -16.778268,12.568097 -27.272494,14.842657 z m 142.017694,-19.3918 -0.20962,-0.3122 c -3.49213,-5.88265 -9.05812,-9.80293 -15.21283,-11.50217 -6.34649,-1.67247 -13.19695,-0.96334 -19.28476,2.51095 h 0.0401 c -6.07443,3.44753 -10.13743,9.0938 -11.83667,15.41799 -1.67247,6.27067 -0.94104,13.19695 2.55109,19.23124 l 0.11595,0.16056 c 3.50105,5.95401 9.06705,9.95011 15.2842,11.56907 6.24837,1.75275 13.21033,1.02132 19.20894,-2.47973 l 0.32557,-0.1561 c 5.90496,-3.5278 9.83862,-9.0938 11.48433,-15.20837 1.67248,-6.29743 1.00795,-13.19695 -2.46634,-19.23124 z"
       fill="#1a1919"
       id="path2" />
  </g>
</svg>
