<?xml version="1.0" encoding="UTF-8" standalone="no"?>
<svg
   fill="none"
   height="2619.9919"
   width="2595.5552"
   viewBox="27 26 179.85121 183.33656"
   version="1.1"
   id="svg3"
   xmlns="http://www.w3.org/2000/svg"
   xmlns:svg="http://www.w3.org/2000/svg">
  <defs
     id="defs3" />
  <g
     fill-rule="evenodd"
     clip-rule="evenodd"
     stroke="#000000"
     stroke-width="4"
     stroke-miterlimit="10"
     stroke-linejoin="round"
     id="g9"
     transform="translate(3.3433984,4.1983758)">
    <path
       d="M 70.213,200.94 27,26 200.23,75.874 Z"
       id="path7"
       style="stroke:#ececec;stroke-width:8.39712;stroke-linejoin:round;stroke-dasharray:none" />
    <path
       d="m 113.583,50.942 21.591,87.496 -86.567,-24.945 z"
       id="path8"
       style="stroke:#ececec;stroke-width:8.39712;stroke-dasharray:none" />
    <path
       d="M 92.103,125.36 81.379,81.895 124.387,94.241 Z M 70.651,38.483 81.375,81.948 38.367,69.602 Z m 86.012,24.777 10.724,43.465 -43.008,-12.346 z m -64.555,62.13 10.724,43.465 -43.008,-12.346 z"
       id="path9"
       style="stroke:#ececec;stroke-width:8.39712;stroke-dasharray:none" />
  </g>
  <g
     fill-rule="evenodd"
     clip-rule="evenodd"
     stroke="#000000"
     stroke-width="4"
     stroke-miterlimit="10"
     stroke-linejoin="round"
     id="g6"
     transform="translate(3.3433984,4.1983758)">
    <path
       d="M 70.213,200.94 27,26 200.23,75.874 Z"
       id="path4" />
    <path
       d="m 113.583,50.942 21.591,87.496 -86.567,-24.945 z"
       id="path5" />
    <path
       d="M 92.103,125.36 81.379,81.895 124.387,94.241 Z M 70.651,38.483 81.375,81.948 38.367,69.602 Z m 86.012,24.777 10.724,43.465 -43.008,-12.346 z m -64.555,62.13 10.724,43.465 -43.008,-12.346 z"
       id="path6" />
  </g>
</svg>
