<?xml version="1.0" encoding="UTF-8" standalone="no"?>
<!-- Uploaded to: SVG Repo, www.svgrepo.com, Generator: SVG Repo Mixer Tools -->

<svg
   width="858.01392"
   height="624.35303"
   viewBox="0 -31.5 274.56445 199.79297"
   version="1.1"
   preserveAspectRatio="xMidYMid"
   id="svg1"
   xmlns="http://www.w3.org/2000/svg"
   xmlns:svg="http://www.w3.org/2000/svg">
  <defs
     id="defs1" />
  <g
     id="g1"
     transform="translate(1.2597656,-35.050781)">
    <path
       id="path1"
       style="fill:#ffffff"
       d="M -0.16992188,4.6425781 C 11.933003,16.767059 24.063025,28.867442 36.142578,41.015625 c 0.757982,1.730071 2.88378,2.263712 4.605859,1.980592 21.031104,0.03463 42.062238,0.02314 63.093363,0.02136 6.46093,6.460938 12.92187,12.921875 19.38281,19.382813 -9.50716,9.507812 -19.01432,19.015625 -28.521485,28.523437 C 88.242188,84.462891 81.78125,78.001953 75.320312,71.541016 c 0,-6.759766 10e-7,-13.519532 0,-20.279297 -13.15625,0 -26.3125,0 -39.46875,0 0,12.210286 10e-7,24.420573 0,36.630859 17.804688,17.804692 35.609375,35.609372 53.414063,53.414062 -7.458686,7.46254 -14.919761,14.92269 -22.376953,22.38672 13.21043,13.2186 26.424725,26.43335 39.636718,39.65039 55.5931,0 111.1862,0 166.7793,0 -13.13939,-13.0722 -26.27957,-26.1436 -39.41797,-39.2168 -36.94727,0 -73.89453,0 -110.8418,0 -7.55078,-7.55143 -15.10156,-15.10286 -22.65234,-22.65429 1.93294,-1.9323 3.86588,-3.86459 5.79883,-5.79688 6.76367,6.76367 13.52734,13.52734 20.29101,20.29102 18.6263,0 37.25261,0 55.87891,0 -16.06054,-16.09375 -32.12533,-32.18327 -48.1875,-48.27539 1.96419,-1.9642 3.92838,-3.92839 5.89258,-5.89258 16.06734,16.06286 32.13239,32.12802 48.20117,48.18945 0,-18.63086 0,-37.26172 0,-55.892577 -6.73568,-6.735677 -13.47136,-13.471354 -20.20703,-20.207031 1.98893,-1.988932 3.97786,-3.977865 5.96679,-5.966797 7.52279,7.523437 15.04558,15.046875 22.56836,22.570313 0,21.796872 0,43.593752 0,65.390622 13.15625,0 26.3125,0 39.46875,0 0,-27.24739 0,-54.49479 0,-81.742185 -13.2164,-13.21198 -26.43046,-26.426312 -39.64843,-39.636719 -7.57658,7.568598 -15.14946,15.14091 -22.72461,22.710938 -17.80451,-17.8882 -35.61046,-35.774969 -53.41407,-53.6640628 -40.512366,1e-7 -81.024736,0 -121.5371056,0 0.36328122,0.3639323 0.72656247,0.7278646 1.08984372,1.0917969 z" />
    <path
       d="m 200.44022,152.03885 h 31.77989 V 75.733576 l -35.80478,-35.804782 -22.47232,22.472322 26.49721,26.497216 z m 31.86374,15.93187 h -46.28627 -64.566 l -26.497219,-26.49721 11.236159,-11.23617 21.88536,21.88536 h 45.0285 L 128.74681,107.68117 140.06682,96.361156 184.4245,140.71884 V 95.69034 L 162.62299,73.888834 173.7753,62.736524 118.68457,7.3942383 H 64.34851 v 0 H 8 L 39.696037,39.090275 v 0.08385 h 0.167704 65.572219 l 23.22699,23.226991 -33.960035,33.96004 -23.22699,-23.22699 V 55.105997 H 39.696037 v 31.192925 l 55.006878,55.006878 -22.38847,22.38847 35.804785,35.80478 H 162.45529 264 v 0 z"
       fill="#231f20"
       id="path2" />
  </g>
</svg>
